<svg width="276" height="60" viewBox="0 0 276 60" fill="none" xmlns="http://www.w3.org/2000/svg">
<path d="M0 20H10V30H0V20Z" fill="white"/>
<path d="M10 10H20V20H10V10Z" fill="white"/>
<path d="M20 10H30V20H20V10Z" fill="white"/>
<path d="M0 30H10V40H0V30Z" fill="white"/>
<path d="M0 40H10V50H0V40Z" fill="white"/>
<path d="M30 20H40V30H30V20Z" fill="white"/>
<path d="M30 0H40V10H30V0Z" fill="#486DFF"/>
<path d="M30 30H40V40H30V30Z" fill="white"/>
<path d="M30 40H40V50H30V40Z" fill="white"/>
<path d="M0 50H10V60L5 55L0 50Z" fill="white"/>
<path d="M65.3462 49.5885H57.7433V44.2978H65.0718C66.9138 44.2978 68.4553 43.9778 69.6963 43.3377C70.9504 42.6845 71.8909 41.6721 72.518 40.3005C73.1581 38.9157 73.4781 37.1391 73.4781 34.9706C73.4781 32.8152 73.1581 31.0516 72.518 29.6799C71.8909 28.3083 70.9504 27.3024 69.6963 26.6623C68.4553 26.0091 66.9203 25.6826 65.0914 25.6826H57.6257V20.3919H65.4442C68.3834 20.3919 70.9112 20.9798 73.0274 22.1555C75.1437 23.3181 76.7701 24.9902 77.9066 27.1718C79.0431 29.3403 79.6114 31.9399 79.6114 34.9706C79.6114 38.0144 79.0366 40.627 77.887 42.8086C76.7505 44.9902 75.1176 46.6688 72.9882 47.8445C70.8589 49.0072 68.3116 49.5885 65.3462 49.5885ZM61.1528 20.3919V49.5885H55V20.3919H61.1528Z" fill="white"/>
<path d="M86.3912 49.5885H79.7877L89.8596 20.3919H97.8152L107.867 49.5885H101.283L93.9549 27.0542H93.7198L86.3912 49.5885ZM85.9993 38.1058H101.617V42.9262H85.9993V38.1058Z" fill="white"/>
<path d="M105.34 25.4866V20.3919H129.324V25.4866H120.389V49.5885H114.295V25.4866H105.34Z" fill="white"/>
<path d="M133.38 49.5885H126.777L136.848 20.3919H144.804L154.856 49.5885H148.272L140.944 27.0542H140.709L133.38 49.5885ZM132.988 38.1058H148.605V42.9262H132.988V38.1058Z" fill="white"/>
<path d="M157.051 49.5885V20.3919H168.553C170.761 20.3919 172.642 20.8165 174.197 21.6656C175.764 22.5016 176.96 23.6643 177.782 25.1535C178.619 26.6427 179.037 28.3605 179.037 30.307C179.037 32.2404 178.619 33.9451 177.782 35.4213C176.946 36.8975 175.732 38.0536 174.138 38.8896C172.557 39.7126 170.643 40.1241 168.396 40.1241H161.068V35.1862H167.397C168.586 35.1862 169.566 34.9771 170.336 34.5591C171.12 34.1411 171.702 33.5663 172.08 32.8347C172.472 32.1032 172.668 31.2606 172.668 30.307C172.668 29.3272 172.472 28.4781 172.08 27.7596C171.702 27.0281 171.12 26.4598 170.336 26.0549C169.553 25.6499 168.566 25.4474 167.378 25.4474H163.204V49.5885H157.051Z" fill="white"/>
<path d="M199.768 20.3919H205.941V39.3403C205.941 41.4696 205.431 43.3377 204.412 44.9445C203.406 46.5382 201.995 47.7792 200.18 48.6675C198.364 49.5558 196.248 50 193.831 50C191.414 50 189.298 49.5558 187.482 48.6675C185.666 47.7792 184.255 46.5382 183.25 44.9445C182.244 43.3377 181.741 41.4696 181.741 39.3403V20.3919H187.894V38.8308C187.894 39.9412 188.142 40.934 188.638 41.8093C189.135 42.6715 189.827 43.3508 190.715 43.8472C191.604 44.3305 192.642 44.5722 193.831 44.5722C195.033 44.5722 196.078 44.3305 196.966 43.8472C197.854 43.3508 198.54 42.6715 199.024 41.8093C199.52 40.934 199.768 39.9412 199.768 38.8308V20.3919Z" fill="white"/>
<path d="M209.722 49.5885V20.3919H215.875V44.4938H228.396V49.5885H209.722Z" fill="white"/>
<path d="M242.015 50C239.664 50 237.613 49.6408 235.862 48.9223C234.125 48.2038 232.766 47.1326 231.786 45.7087C230.82 44.2848 230.31 42.5212 230.258 40.418H236.215C236.293 41.3847 236.581 42.2012 237.077 42.8674C237.573 43.5206 238.24 44.0105 239.076 44.337C239.912 44.6636 240.872 44.8269 241.956 44.8269C243.001 44.8269 243.909 44.6767 244.68 44.3762C245.464 44.0758 246.065 43.6577 246.483 43.1221C246.914 42.5735 247.129 41.9399 247.129 41.2214C247.129 40.5683 246.933 40.0196 246.541 39.5754C246.163 39.1313 245.601 38.7524 244.856 38.4389C244.125 38.1254 243.23 37.8445 242.172 37.5963L238.978 36.8125C236.522 36.2247 234.582 35.2907 233.158 34.0105C231.734 32.7172 231.022 30.9928 231.022 28.8374C231.022 27.0738 231.499 25.5323 232.453 24.2129C233.419 22.8805 234.732 21.8485 236.391 21.1169C238.063 20.3723 239.964 20 242.093 20C244.262 20 246.15 20.3723 247.756 21.1169C249.376 21.8615 250.637 22.8935 251.538 24.2129C252.453 25.5323 252.923 27.0542 252.949 28.7786H247.012C246.907 27.6421 246.417 26.7538 245.542 26.1137C244.68 25.4735 243.511 25.1535 242.035 25.1535C241.042 25.1535 240.193 25.2972 239.487 25.5846C238.795 25.8589 238.266 26.2443 237.9 26.7407C237.534 27.2371 237.351 27.8054 237.351 28.4455C237.351 29.1248 237.56 29.6995 237.978 30.1698C238.396 30.627 238.952 31.0059 239.644 31.3063C240.349 31.5937 241.12 31.8354 241.956 32.0314L244.562 32.678C245.83 32.9654 246.999 33.3508 248.07 33.8341C249.141 34.3044 250.069 34.8857 250.852 35.5781C251.649 36.2704 252.263 37.0869 252.694 38.0274C253.125 38.9549 253.341 40.0261 253.341 41.241C253.341 43.0307 252.89 44.5852 251.989 45.9046C251.101 47.211 249.814 48.2234 248.129 48.9419C246.444 49.6473 244.406 50 242.015 50Z" fill="white"/>
<path d="M256.163 49.5885V20.3919H275.836V25.4866H262.315V32.3449H274.817V37.3416H262.315V44.4938H275.875V49.5885H256.163Z" fill="white"/>
</svg>
